<?xml version="1.0" standalone="no"?>
<!DOCTYPE svg PUBLIC "-//W3C//DTD SVG 20010904//EN" "http://www.w3.org/TR/2001/REC-SVG-20010904/DTD/svg10.dtd">
<svg xmlns="http://www.w3.org/2000/svg" version="1.0" width="1138.000000pt" height="432.000000pt" viewBox="0 0 1138.000000 432.000000" preserveAspectRatio="xMidYMid meet">
<metadata>
Created by potrace 1.16, written by Peter Selinger 2001-2019
<meta name="Producer" content="Online-Convert"/></metadata>
<g transform="translate(0.000000,432.000000) scale(0.100000,-0.100000)" fill="#000000" stroke="none">
<path d="M724 3588 c13 -35 33 -86 45 -115 l20 -52 -103 -49 c-134 -64 -210 -117 -315 -216 -247 -236 -371 -525 -371 -861 0 -331 120 -625 350 -855 116 -116 231 -191 383 -250 133 -52 177 -65 177 -52 0 5 -18 18 -40 31 -154 86 -310 291 -396 517 -74 198 -72 441 8 647 68 176 233 373 416 495 90 59 112 67 112 37 0 -7 16 -55 36 -106 20 -52 40 -105 45 -118 8 -20 12 -21 26 -10 8 8 26 30 38 49 13 19 160 206 329 414 168 209 304 381 303 382 -1 2 -221 37 -487 79 -267 41 -501 80 -520 85 -19 6 -45 10 -57 10 l-23 0 24 -62z"/>
<path d="M5786 895 c-47 -16 -89 -56 -112 -103 -29 -61 -9 -155 52 -239 15 -21 14 -23 -23 -46 -104 -66 -147 -139 -148 -247 0 -64 4 -82 28 -122 49 -84 125 -125 252 -135 86 -7 179 15 241 56 l43 30 38 -31 c50 -39 92 -61 108 -54 21 8 110 129 98 133 -6 2 -37 22 -68 45 -42 30 -55 44 -49 57 4 9 20 51 35 93 31 86 36 77 -46 96 -98 24 -90 26 -104 -23 -7 -25 -16 -45 -20 -45 -8 1 -101 127 -101 138 0 4 22 24 50 45 63 47 90 99 90 172 0 84 -42 146 -122 179 -47 20 -188 20 -242 1z m192 -141 c12 -14 22 -32 22 -40 0 -18 -68 -94 -84 -94 -16 0 -50 37 -70 74 -39 76 72 127 132 60z m-55 -442 l78 -97 -28 -22 c-114 -93 -275 -16 -233 111 10 32 80 107 98 106 4 -1 42 -44 85 -98z"/>
<path d="M6690 460 l0 -450 100 0 100 0 1 273 0 272 77 -272 76 -273 88 0 87 0 9 32 c5 18 40 143 78 278 l69 245 3 -277 2 -278 95 0 95 0 0 450 0 450 -139 0 -138 0 -32 -107 c-17 -60 -53 -184 -80 -278 l-49 -170 -17 60 c-10 33 -46 157 -80 275 l-62 215 -142 3 -141 3 0 -451z"/>
<path d="M9190 461 l0 -451 100 0 100 0 0 133 0 134 105 6 c165 11 246 50 300 148 28 51 30 60 30 169 0 99 -3 121 -22 155 -29 54 -78 99 -138 127 -46 21 -66 23 -262 26 l-213 4 0 -451z m377 249 c41 -25 55 -52 55 -110 0 -96 -54 -140 -172 -140 l-60 0 0 135 0 135 73 0 c54 0 80 -5 104 -20z"/>
<path d="M9860 825 l0 -85 135 0 135 0 0 -365 0 -365 100 0 100 0 0 365 0 365 135 0 135 0 0 85 0 85 -370 0 -370 0 0 -85z"/>
<path d="M10625 891 c3 -11 64 -142 135 -291 l130 -273 0 -158 0 -159 100 0 100 0 0 156 0 155 135 286 c74 157 135 289 135 294 0 6 -46 8 -107 7 l-108 -3 -77 -175 -77 -174 -33 74 c-19 41 -54 121 -78 178 l-44 102 -109 0 c-102 0 -108 -1 -102 -19z"/>
<path d="M7830 663 c-51 -17 -130 -69 -130 -84 0 -6 18 -37 41 -70 39 -58 41 -60 62 -45 46 34 97 56 127 56 41 0 80 -39 80 -80 l0 -30 -76 0 c-104 0 -159 -16 -204 -59 -96 -91 -73 -278 41 -336 39 -21 161 -20 202 1 21 12 32 13 35 5 2 -7 37 -11 98 -11 l94 0 0 241 c0 152 -4 256 -11 280 -16 52 -61 103 -112 128 -54 26 -179 28 -247 4z m180 -427 c0 -36 -5 -48 -26 -65 -50 -39 -109 -22 -120 35 -9 49 21 74 91 74 l55 0 0 -44z"/>
<path d="M8402 655 c-90 -46 -130 -141 -103 -242 20 -72 75 -114 223 -167 55 -20 68 -44 38 -68 -35 -28 -98 -23 -227 17 -23 7 -23 6 -23 -78 l0 -86 52 -16 c59 -17 205 -20 261 -4 43 12 102 59 121 98 21 42 27 107 15 157 -16 61 -62 106 -136 133 -135 49 -153 63 -129 96 24 33 119 28 214 -11 9 -4 12 15 12 80 0 106 -3 108 -155 114 -104 3 -113 2 -163 -23z"/>
</g>
</svg>
